# xmcd CD database file
#
# Track frame offsets:
#	150
#	21400
#	40320
#	62026
#	81272
#	102028
#	121425
#	142148
#	163657
#	183410
#	210167
#
# Disc length: 3320 seconds
#
# Revision: 0
# Processed by: cddbd v1.5.2PL0 Copyright (c) Steve Scherf et al.
# Submitted via: CDex 1.51
#
DISCID=970cf60b
DTITLE=Various Artist - Hot Latin Salsa Hits - Vol 1
DYEAR=2005
DGENRE=Salsa
TTITLE0=Contigo tengo todo
TTITLE1=En tu boda
TTITLE2=La trampa
TTITLE3=El ultimo escalon
TTITLE4=Ya no te espero
TTITLE5=Querube
TTITLE6=Donde quieras que estes
TTITLE7=El prendedor
TTITLE8=Brujeria
TTITLE9=Ya empezo la fiesta
TTITLE10=Que le den candela
EXTD=YEAR: 2005
EXTT0=
EXTT1=
EXTT2=
EXTT3=
EXTT4=
EXTT5=
EXTT6=
EXTT7=
EXTT8=
EXTT9=
EXTT10=
PLAYORDER=
